# xmcd
#
# Track frame offsets: 
#        150
#        11515
#        25942
#        35505
#        46415
#        59592
#        73705
#        88792
#        100795
#        114287
#        131277
#        140725
#        153545
#        166467
#        178510
#        191652
#        203090
#        214815
#        227377
#        241977
#        255027
#        270705
#
# Disc length: 3788 seconds
#
# Revision: 0
# Processed by: cddbd v1.4PL0 Copyright (c) Steve Scherf et al.
# Submitted via: ExactAudioCopy v0.90a11
#
DISCID=2c0eca16
DTITLE=Doyle Lawson and Quicksilver - Once and For Always-News is Out
DYEAR=1900
DGENRE=
TTITLE0=Traveling Down the Blue Road
TTITLE1=Once and for Always
TTITLE2=A Lover of the Lord
TTITLE3=Speak Softly (You're Talking to My Heart)
TTITLE4=The Old Timers Waltz
TTITLE5=Come Back to Me in My Dreams
TTITLE6=Carolina in the Pines
TTITLE7=Stone Cold Heart
TTITLE8=Julie Ann
TTITLE9=You Only Have to Say You've Changed Your Mind
TTITLE10=When the Sun of My Life Goes Down
TTITLE11=Sweetheart You Done Me Wrong
TTITLE12=This Dream I'm In
TTITLE13=I've Heard These Words Before
TTITLE14=A Vision of Jesus
TTITLE15=Up on the Blue Ridge
TTITLE16=I'll Be True
TTITLE17=The Grass That I'm Playing is Really Blue
TTITLE18=Have I Loved You Too Late
TTITLE19=Let the Best Man Win
TTITLE20=She's Walking Through My Memory
TTITLE21=Wonderful, Beautiful Place
EXTD=
EXTT0=
EXTT1=
EXTT2=
EXTT3=
EXTT4=
EXTT5=
EXTT6=
EXTT7=
EXTT8=
EXTT9=
EXTT10=
EXTT11=
EXTT12=
EXTT13=
EXTT14=
EXTT15=
EXTT16=
EXTT17=
EXTT18=
EXTT19=
EXTT20=
EXTT21=
PLAYORDER=
